<?xml version="1.0" encoding="UTF-8"?>
<svg width="400px" height="280px" viewBox="0 0 400 280" version="1.1" xmlns="http://www.w3.org/2000/svg" xmlns:xlink="http://www.w3.org/1999/xlink">
    <title>post-item</title>
    <g id="post-item" stroke="none" stroke-width="1" fill="none" fill-rule="evenodd">
        <rect fill="#343434" x="0" y="0" width="400" height="280"></rect>
        <g id="undraw_online_articles_re_yrkj" transform="translate(47.000000, 11.000000)" fill-rule="nonzero">
            <polygon id="Path" fill="#F2F2F2" points="253.655895 208 152 161.611459 204.344109 47 306 93.3885443"></polygon>
            <path d="M269.151276,141.946095 L192.350726,107.136933 C192.049493,107.000402 191.916776,106.647278 192.054294,106.348208 C192.191813,106.049138 192.547491,105.917374 192.848724,106.053905 L269.649274,140.863067 C269.950507,140.999598 270.083224,141.352722 269.945706,141.651792 C269.808187,141.950862 269.452509,142.082626 269.151276,141.946095 L269.151276,141.946095 Z" id="Path" fill="#FFFFFF"></path>
            <path d="M273.151412,131.946237 L196.350588,97.1367999 C196.155724,97.0484793 196.023121,96.8636548 196.00273,96.6519481 C195.982338,96.4402414 196.077257,96.2338158 196.251729,96.1104297 C196.426202,95.9870436 196.653723,95.9654424 196.848588,96.053763 L273.649411,130.8632 C273.844276,130.951521 273.976879,131.136345 273.99727,131.348052 C274.017662,131.559759 273.922743,131.766184 273.748271,131.88957 C273.573798,132.012956 273.346276,132.034558 273.151412,131.946237 L273.151412,131.946237 Z" id="Path" fill="#FFFFFF"></path>
            <path d="M278.152322,122.946575 L201.350593,88.1368105 C201.155726,88.0484891 201.023121,87.8636629 201.00273,87.6519542 C200.982338,87.4402455 201.077257,87.2338179 201.251732,87.1104307 C201.426207,86.9870435 201.653731,86.9654421 201.848598,87.0537635 L278.650327,121.863524 C278.950885,122.00045 279.083038,122.353119 278.945706,122.651784 C278.808375,122.95045 278.453414,123.082339 278.152322,122.946575 L278.152322,122.946575 Z" id="Path" fill="#FFFFFF"></path>
            <path d="M282.15126,112.946095 L205.350588,78.1367953 C205.155724,78.0484751 205.023121,77.8636514 205.00273,77.6519455 C204.982338,77.4402397 205.077256,77.2338148 205.251729,77.1104292 C205.426202,76.9870436 205.653722,76.9654425 205.848586,77.0537628 L282.649273,111.863063 C282.950507,111.999594 283.083224,112.35272 282.945705,112.651791 C282.808187,112.950862 282.452508,113.082626 282.151275,112.946095 L282.15126,112.946095 Z" id="Path" fill="#FFFFFF"></path>
            <path d="M265.151275,149.94608 L188.350588,115.136795 C188.155724,115.048475 188.023121,114.863651 188.00273,114.651946 C187.982338,114.44024 188.077256,114.233815 188.251729,114.110429 C188.426202,113.987044 188.653722,113.965443 188.848586,114.053763 L265.649273,148.863063 C265.950507,148.999594 266.083224,149.352719 265.945705,149.651791 C265.808187,149.950862 265.452508,150.082626 265.151275,149.946095 L265.151275,149.94608 Z" id="Path" fill="#FFFFFF"></path>
            <path d="M278.971743,99.8710907 L218.90737,72.7603607 C218.207691,72.462406 217.844792,71.6934335 218.063336,70.97188 C218.193974,70.5887624 218.482736,70.2783447 218.857973,70.1176496 C219.23321,69.9569544 219.659755,69.961042 220.031771,70.1288981 L280.077876,97.2313947 C280.790675,97.5310072 281.159913,98.3141171 280.933712,99.0465216 C280.798961,99.4246476 280.509652,99.7293551 280.136476,99.8861921 C279.7633,100.043029 279.340631,100.037549 278.971743,99.8710907 L278.971743,99.8710907 Z" id="Path" fill="#FFFFFF"></path>
            <polygon id="Path" fill="#F2F2F2" points="47 93.3885443 148.655891 47 201 161.611459 99.3441086 208"></polygon>
            <path d="M83.8485905,141.946236 L160.649412,107.1368 C160.844276,107.048479 160.976879,106.863655 160.99727,106.651948 C161.017662,106.440241 160.922743,106.233816 160.748271,106.11043 C160.573798,105.987044 160.346276,105.965442 160.151412,106.053763 L83.3505874,140.863199 C83.155723,140.951521 83.0231204,141.136346 83.0027296,141.348053 C82.9823388,141.55976 83.0772577,141.766185 83.2517312,141.889571 C83.4262047,142.012957 83.6537262,142.034558 83.8485905,141.946236 Z" id="Path" fill="#FFFFFF"></path>
            <path d="M79.8485852,131.946236 L156.649274,97.1369382 C156.950508,97.0004059 157.083224,96.6472794 156.945705,96.3482082 C156.808185,96.049137 156.452505,95.9173733 156.151272,96.0539056 L79.3505867,130.863204 C79.1557228,130.951525 79.0231204,131.136349 79.0027296,131.348055 C78.9823388,131.559762 79.0772575,131.766186 79.2517307,131.889572 C79.4262039,132.012957 79.653725,132.034557 79.8485889,131.946236 L79.8485852,131.946236 Z" id="Path" fill="#FFFFFF"></path>
            <path d="M75.8481459,122.946361 L152.649272,88.136942 C152.950507,88.0004092 153.083225,87.6472816 152.945704,87.3482094 C152.808184,87.0491372 152.452502,86.917373 152.151267,87.0539058 L75.3501409,121.863321 C75.0492825,122.000072 74.9168793,122.352944 75.0542948,122.651789 C75.1917103,122.950634 75.5469911,123.082467 75.8481459,122.946361 L75.8481459,122.946361 Z" id="Path" fill="#FFFFFF"></path>
            <path d="M70.8487467,112.946094 L147.649413,78.1367961 C147.844277,78.0484751 147.97688,77.8636508 147.99727,77.6519446 C148.017661,77.4402385 147.922743,77.2338136 147.748269,77.1104284 C147.573796,76.9870431 147.346275,76.9654426 147.151411,77.0537636 L70.3507257,111.863062 C70.0494923,111.999594 69.9167759,112.352721 70.0542954,112.651792 C70.1918148,112.950863 70.5474943,113.082627 70.8487278,112.946094 L70.8487467,112.946094 Z" id="Path" fill="#FFFFFF"></path>
            <path d="M87.8486039,149.946236 L164.649274,115.136939 C164.950508,115.000406 165.083224,114.64728 164.945705,114.348208 C164.808185,114.049137 164.452506,113.917373 164.151272,114.053906 L87.3505867,148.863203 C87.1557227,148.951524 87.0231204,149.136349 87.0027296,149.348055 C86.9823388,149.559761 87.0772575,149.766186 87.2517307,149.889572 C87.4262038,150.012957 87.6537249,150.034557 87.8485888,149.946236 L87.8486039,149.946236 Z" id="Path" fill="#FFFFFF"></path>
            <path d="M75.0282556,99.8710907 L135.092628,72.7603594 C135.79231,72.4624072 136.15521,71.6934324 135.936662,70.9718786 C135.806024,70.5887619 135.517263,70.2783451 135.142027,70.11765 C134.766791,69.9569549 134.340247,69.9610418 133.968231,70.1288966 L73.9221222,97.2313946 C73.2093262,97.5310097 72.8400893,98.3141173 73.0662859,99.0465216 C73.2010373,99.4246476 73.4903458,99.7293551 73.8635219,99.8861921 C74.236698,100.043029 74.6593675,100.037549 75.0282556,99.8710907 Z" id="Path" fill="#FFFFFF"></path>
            <path d="M10.078091,228.631348 C10.736621,218.759381 16.4203441,208.743565 25.8821563,205 C22.6919399,215.305267 23.3711139,226.370428 27.799513,236.237738 C29.5216153,240.037155 31.8457982,244.089495 30.6899549,248.084746 C29.9708125,250.570699 27.9604384,252.556498 25.6569688,253.85826 C23.3533553,255.160022 20.7515856,255.866809 18.1821238,256.560589 L17.695006,257 C13.0095086,248.207911 9.41956086,238.503315 10.078091,228.631348 Z" id="Path" fill="#F0F0F0"></path>
            <path d="M25.9482791,205.384846 C20.8009282,211.814564 17.8341776,219.683857 17.4694178,227.874989 C17.3592199,229.636975 17.5307117,231.405118 17.9775797,233.114322 C18.4673176,234.765402 19.3954523,236.256739 20.6655479,237.433379 C21.8274908,238.553999 23.1473238,239.567272 24.0134249,240.947547 C24.8886553,242.389735 25.099543,244.132566 24.5930931,245.73808 C24.0212486,247.732 22.7586427,249.40392 21.4664306,250.996509 C20.0316784,252.764775 18.5130728,254.578985 17.9939205,256.842142 C17.9310191,257.116348 17.5042107,257.003852 17.5670168,256.730053 C18.4702506,252.792546 22.1400622,250.370857 23.7438549,246.778042 C24.492213,245.101576 24.733945,243.192046 23.8377384,241.52124 C23.0540501,240.06019 21.6939253,239.014141 20.507513,237.889539 C19.2514734,236.759645 18.294457,235.342954 17.7200633,233.763222 C17.1865926,232.082023 16.9464684,230.323355 17.0099735,228.56253 C17.0889713,224.596087 17.7984592,220.666586 19.1124468,216.917976 C20.5880843,212.631497 22.7947248,208.626099 25.6368967,205.07508 C25.8128996,204.855365 26.1231311,205.166551 25.9482791,205.384827 L25.9482791,205.384846 Z" id="Path" fill="#FFFFFF"></path>
            <path d="M16.7330223,224.996203 C13.9573459,224.492079 11.954027,222.042709 12.0008023,219.210324 C12.0037685,219.094087 12.0978814,219.001097 12.2136564,219 C12.3294313,218.998922 12.4252592,219.090129 12.430389,219.20629 C12.3819725,221.844691 14.2548999,224.125115 16.8432888,224.579313 C17.115472,224.627407 17.0036455,225.044007 16.7330186,224.996184 L16.7330223,224.996203 Z" id="Path" fill="#FFFFFF"></path>
            <path d="M19.0957338,236.604841 C21.3641941,235.085653 22.967456,232.780872 23.5858272,230.150073 C23.6468799,229.889372 24.0547832,229.996343 23.9938069,230.256728 C23.3451219,232.993219 21.6717255,235.388361 19.3075793,236.964155 C19.0821459,237.114197 18.8715132,236.75407 19.0957302,236.604841 L19.0957338,236.604841 Z" id="Path" fill="#FFFFFF"></path>
            <path d="M21.2938862,213.360727 C22.4066649,213.753431 23.6711826,213.631602 24.658951,213.036521 C24.9077822,212.885641 25.1421316,213.241451 24.894919,213.391361 C23.8005679,214.044116 22.406552,214.181154 21.1731681,213.757226 C21.0504102,213.725073 20.9773836,213.615256 21.0063151,213.506312 C21.040211,213.397199 21.168495,213.332256 21.2938862,213.360731 L21.2938862,213.360727 Z" id="Path" fill="#FFFFFF"></path>
            <path d="M55,221.679049 C54.8573867,221.782057 54.7147696,221.885064 54.5721943,221.9917 C52.6621665,223.386274 50.8710559,224.930412 49.2165366,226.608879 C49.0865114,226.736661 48.9567217,226.868075 48.8307039,226.999229 C44.8886274,231.08461 41.7557876,235.850784 39.5914408,241.055467 C38.7321402,243.127307 38.0351368,245.260127 37.5064646,247.435465 C36.7765216,250.439734 36.2293113,253.75397 34.5766001,256.27264 C34.4071827,256.537306 34.2211793,256.791449 34.0196581,257.033609 L17.7616602,257.977635 C17.723611,257.96163 17.6855997,257.949251 17.647372,257.933261 L17,258 C17.019262,257.885947 17.0417413,257.768058 17.0609995,257.654001 C17.0718897,257.587794 17.0864036,257.521379 17.0972938,257.455172 C17.1057036,257.410966 17.1142881,257.36673 17.1192945,257.326372 C17.122037,257.311646 17.1249618,257.296913 17.1279208,257.285801 C17.1329272,257.245439 17.1419751,257.208475 17.1471828,257.171745 C17.2709798,256.512441 17.3997262,255.852841 17.5334219,255.192947 C17.5332016,255.189311 17.5332016,255.189311 17.536605,255.185467 C18.5684271,250.159938 20.0379877,245.17456 22.2339702,240.565976 C22.3000863,240.427343 22.3658035,240.285088 22.4393455,240.146023 C23.4409699,238.074064 24.6139453,236.085691 25.9465573,234.200764 C26.6796457,233.170934 27.4655316,232.178086 28.3011978,231.226031 C30.4652667,228.770131 33.0105631,226.662661 35.8437749,224.980883 C41.4922562,221.62908 48.1731368,220.082645 54.5164861,221.561397 C54.678726,221.599354 54.8375322,221.637475 55,221.679049 Z" id="Path" fill="#F0F0F0"></path>
            <path d="M54.8235391,221.442247 C46.8444276,223.521716 39.7243935,228.058583 34.4747492,234.408442 C33.3203167,235.755391 32.3857404,237.275609 31.7054264,238.913133 C31.094339,240.529673 30.9279513,242.28011 31.2235514,243.98257 C31.4672317,245.575476 31.9012374,247.17667 31.7528676,248.800982 C31.5742496,250.480393 30.6862704,252.00386 29.3120722,252.988548 C27.6507664,254.245586 25.636169,254.831643 23.6461123,255.336399 C21.4365374,255.896834 19.1325838,256.443999 17.3500668,257.948409 C17.1340906,258.130688 16.863445,257.785421 17.0790954,257.603419 C20.1803665,254.986003 24.5596595,255.237298 28.008248,253.314924 C29.6174226,252.417908 30.9656043,251.031258 31.2660147,249.156 C31.5287086,247.516168 31.0825727,245.864622 30.8218828,244.253897 C30.5091303,242.597319 30.6073903,240.889476 31.1080795,239.279555 C31.7026957,237.612734 32.5770597,236.059098 33.6937291,234.685178 C36.1583032,231.552002 39.1009459,228.825224 42.4138597,226.604733 C46.180787,224.049571 50.3577235,222.156628 54.7639526,221.007804 C55.036712,220.93681 55.0945029,221.371718 54.8235391,221.442247 L54.8235391,221.442247 Z" id="Path" fill="#FFFFFF"></path>
            <path d="M36.5907388,231.924467 C34.5986609,229.744514 34.4621722,226.426646 36.268326,224.087022 C36.4460503,223.858427 36.8057951,224.126873 36.6278356,224.355768 C34.9413433,226.532088 35.0748838,229.626047 36.9424773,231.645607 C37.1386632,231.858253 36.7857909,232.135896 36.5907273,231.924467 L36.5907388,231.924467 Z" id="Path" fill="#FFFFFF"></path>
            <path d="M31.2275658,243.568714 C33.9339102,243.701147 36.590391,242.80146 38.6673043,241.049051 C38.8729389,240.875259 39.1299247,241.20579 38.9245382,241.379372 C36.7598732,243.198907 33.9935068,244.129511 31.1775238,243.985462 C30.909127,243.971544 30.9606292,243.554872 31.2275658,243.568714 Z" id="Path" fill="#FFFFFF"></path>
            <path d="M46.3546814,224.078366 C46.8798117,224.97897 47.8098993,225.547535 48.8297792,225.591399 C49.0872705,225.601692 49.0375922,226.010019 48.7817775,225.999812 C47.6556825,225.945974 46.6287434,225.321363 46.0400503,224.332221 C45.9755671,224.241812 45.9904235,224.115418 46.0739947,224.043431 C46.1610364,223.973918 46.2862525,223.989497 46.3546814,224.078352 L46.3546814,224.078366 Z" id="Path" fill="#FFFFFF"></path>
            <polygon id="Path" fill="#FFFFFF" points="253 209 101 209 101 38 253 38"></polygon>
            <path d="M253,209 L101,209 L101,38 L253,38 L253,209 Z M101.817204,208.184908 L252.182777,208.184908 L252.182777,38.8151074 L101.817204,38.8151074 L101.817204,208.184908 Z" id="Shape" fill="#CACACA"></path>
            <path d="M234.180702,118 L118.819287,118 C118.526584,118 118.256115,117.809401 118.109764,117.5 C117.963412,117.190599 117.963412,116.809401 118.109764,116.5 C118.256115,116.190599 118.526584,116 118.819287,116 L234.180714,116 C234.633193,116 235,116.447715 235,117 C235,117.552285 234.633193,118 234.180714,118 L234.180702,118 Z" id="Path" fill="#E4E4E4"></path>
            <path d="M234.180702,105 L118.819287,105 C118.366807,105 118,104.552285 118,104 C118,103.447715 118.366807,103 118.819287,103 L234.180713,103 C234.633193,103 235,103.447715 235,104 C235,104.552285 234.633193,105 234.180713,105 L234.180702,105 Z" id="Path" fill="#E4E4E4"></path>
            <path d="M234.180702,90 L118.819287,90 C118.526584,90 118.256115,89.8094012 118.109764,89.5 C117.963412,89.1905989 117.963412,88.8094011 118.109764,88.5 C118.256115,88.1905988 118.526584,88 118.819287,88 L234.180713,88 C234.633193,88 235,88.4477153 235,89 C235,89.5522847 234.633193,90 234.180713,90 L234.180702,90 Z" id="Path" fill="#E4E4E4"></path>
            <path d="M234.180702,76 L118.819287,76 C118.366807,76 118,75.5522847 118,75 C118,74.4477153 118.366807,74 118.819287,74 L234.180713,74 C234.633193,74 235,74.4477153 235,75 C235,75.5522847 234.633193,76 234.180713,76 L234.180702,76 Z" id="Path" fill="#E4E4E4"></path>
            <path d="M234.180702,131 L118.819287,131 C118.366807,131 118,130.552285 118,130 C118,129.447715 118.366807,129 118.819287,129 L234.180713,129 C234.633193,129 235,129.447715 235,130 C235,130.552285 234.633193,131 234.180713,131 L234.180702,131 Z" id="Path" fill="#E4E4E4"></path>
            <path d="M234.180702,194 L118.819287,194 C118.366807,194 118,193.552285 118,193 C118,192.447715 118.366807,192 118.819287,192 L234.180713,192 C234.633193,192 235,192.447715 235,193 C235,193.552285 234.633193,194 234.180713,194 L234.180702,194 Z" id="Path" fill="#E4E4E4"></path>
            <path d="M206.488006,181 L146.511994,181 C145.677323,180.99909 145.000917,180.328053 145,179.5 L145,144.5 C145.000915,143.671946 145.677322,143.000908 146.511994,143 L206.488006,143 C207.322679,143.000906 207.999087,143.671946 208,144.5 L208,179.5 C207.999089,180.328049 207.322681,180.999092 206.488006,181 Z" id="Path" fill="#FFFFFF"></path>
            <path d="M185.914924,160.048148 C185.300894,159.394536 184.446455,159.016509 183.547028,159.000528 C182.6476,158.984546 181.780121,159.331977 181.142991,159.963357 L164.338937,176.670296 C163.41471,177.587071 161.919179,177.589303 160.992189,176.675289 L158.50344,174.205906 C157.882038,173.587842 157.039082,173.240596 156.160104,173.240596 C155.281126,173.240596 154.438169,173.587842 153.816768,174.205906 L149,179 L203,179 L203,178.316556 L185.914924,160.048148 Z" id="Path" fill="#5C5C5C"></path>
            <path d="M206.488006,181 L146.511994,181 C145.677323,180.99909 145.000917,180.328053 145,179.5 L145,144.5 C145.000915,143.671946 145.677322,143.000908 146.511994,143 L206.488006,143 C207.322679,143.000906 207.999087,143.671946 208,144.5 L208,179.5 C207.999089,180.328049 207.322681,180.999092 206.488006,181 Z M146.511998,143.999995 C146.233779,143.999995 146.007998,144.224002 146.007998,144.500013 L146.007998,179.500017 C146.007998,179.776029 146.233778,180.000017 146.511998,180.000017 L206.48801,180.000017 C206.766231,180.000017 206.992013,179.77603 206.992013,179.500017 L206.992013,144.499995 C206.992013,144.223982 206.76623,143.999995 206.48801,143.999995 L146.511998,143.999995 Z" id="Shape" fill="#3F3D56"></path>
            <path d="M61.8475758,174.164829 C62.1718587,173.070186 61.9731056,171.894233 61.3047973,170.953396 C60.636489,170.01256 59.5672766,169.403487 58.3848661,169.290069 L55.0742336,156 L50,161.177199 L53.9217726,173.003954 C53.8529248,174.961516 55.3240835,176.659007 57.3461658,176.955177 C59.368248,177.251346 61.3021055,176.052581 61.8475758,174.164829 Z" id="Path" fill="#FFB6B6"></path>
            <path d="M54.1075757,169.913124 C53.6498049,169.760241 53.2783405,169.419431 53.0857611,168.975634 L46.4517383,152.696688 C44.7600379,148.793843 44.5390019,144.407393 45.8297463,140.353288 L50.0805929,126.995102 C50.2564232,125.040599 51.4590797,123.329005 53.2348762,122.505996 C55.0106728,121.682987 57.0893566,121.873813 58.6867721,123.006489 C60.2841875,124.139165 61.1572291,126.041311 60.9765535,127.995369 L55.3391664,149.50594 L59.1149363,166.399815 C59.2360053,167.106627 58.9043848,167.814098 58.2845381,168.171366 L55.4858213,169.775658 C55.1855976,169.947572 54.8402751,170.0236 54.4958843,169.993608 C54.3637366,169.982241 54.2333941,169.955225 54.1075757,169.913124 Z" id="Path" fill="#E4E4E4"></path>
            <polygon id="Path" fill="#FFB6B6" points="77.0011605 253 81.7435203 253 84 235 77 235"></polygon>
            <path d="M76,252.000378 L85.1613087,252 L85.1616881,252 C88.3859911,252.000173 90.9997758,254.601562 91,257.810623 L91,257.999449 L76.0002694,258 L76,252.000378 Z" id="Path" fill="#2F2E41"></path>
            <polygon id="Path" fill="#FFB6B6" points="51.0011605 253 55.7435203 253 58 235 51 235"></polygon>
            <path d="M50,252.000378 L59.1613087,252 L59.1616881,252 C62.3859911,252.000173 64.9997758,254.601562 65,257.810623 L65,257.999449 L50.0002694,258 L50,252.000378 Z" id="Path" fill="#2F2E41"></path>
            <path d="M79.92,163.406449 L52.5992236,161 C52.5992236,161 49.9,178.242665 50.28,185.090149 C50.66,191.937633 51.04,202.589275 51.04,202.589275 L48,249 L59.78,247.478337 L61.3,209.056343 L66.24,188.133475 L71.94,214.76258 L75.74,249 L86,247.858753 L82.58,206.393433 C82.58,206.393433 85.6199886,169.112686 79.92,163.406449 Z" id="Path" fill="#2F2E41"></path>
            <circle id="Oval" fill="#FFB8B8" cx="68.5" cy="104.5" r="7.5"></circle>
            <path d="M77.5888607,121.663934 L72.1748102,117.39095 C72.1748102,117.39095 66.3118197,112.905562 62.8725764,116.221755 L61.3284219,118.410602 C61.3284219,118.410602 52.5738389,121.663934 52.5738389,125.797541 L52.9900813,148.473195 C52.9900813,148.473195 49.9579574,160.12245 54.5061432,160.874015 L81,163 L80.6582114,141.333329 L77.5888607,121.663934 Z" id="Path" fill="#E4E4E4"></path>
            <path d="M62.995208,112 C62.995208,112 55.0408207,106.174103 59.2074045,99.1830271 C62.0979417,94.3330185 68.0875803,94.7169218 71.4851908,95.4069682 C73.3433853,95.7586479 74.9137507,97.0255381 75.6843497,98.7946339 C76.2525202,100.15401 76.2525202,101.513386 73.9798381,101.513386 C69.4344739,101.513386 71.707156,105.008924 71.707156,105.008924 C71.707156,105.008924 68.6769132,105.78571 69.4344739,108.504462 C70.1920346,111.223214 62.995208,112 62.995208,112 Z" id="Path" fill="#2F2E41"></path>
            <path d="M103.870807,161.193944 C103.591237,160.107679 102.853281,159.20324 101.855509,158.723995 C100.857737,158.244751 99.7026432,158.23993 98.7010428,158.71083 L89.5096464,149 L88,155.836346 L96.9597665,164.009828 C97.8685023,165.707201 99.8809842,166.44455 101.644183,165.726141 C103.407383,165.007733 104.363977,163.060647 103.870829,161.193944 L103.870807,161.193944 Z" id="Path" fill="#FFB6B6"></path>
            <path d="M95.0256768,161.961908 C94.5483179,162.063856 94.0499506,161.958991 93.654781,161.673448 L79.5344087,150.979404 C76.0608509,148.467321 73.6216637,144.784081 72.6705738,140.614826 L69.5348959,126.878307 C68.6856856,125.096539 68.8566984,122.998675 69.9833743,121.376694 C71.1100501,119.754712 73.0207721,118.855676 74.994211,119.018986 C76.9676499,119.182295 78.7032087,120.383076 79.5456854,122.168012 L85.6478525,143.669771 L97.5914939,156.358725 C98.0590245,156.908496 98.1322646,157.690499 97.774892,158.316912 L96.1567452,161.137624 C95.9830717,161.44005 95.7209764,161.682568 95.4053956,161.832852 C95.2843767,161.890638 95.1569176,161.933958 95.0256768,161.961908 Z" id="Path" fill="#E4E4E4"></path>
            <path d="M286.684157,12 L68.3158434,12 C68.1412317,11.9990486 68,11.7754698 68,11.5 C68,11.2245302 68.1412317,11.0009514 68.3158434,11 L286.684157,11 C286.858768,11.0009514 287,11.2245302 287,11.5 C287,11.7754698 286.858768,11.9990486 286.684157,12 Z" id="Path" fill="#CACACA"></path>
            <circle id="Oval" fill="#3F3D56" cx="75.5" cy="3.5" r="3.5"></circle>
            <circle id="Oval" fill="#3F3D56" cx="87.5" cy="3.5" r="3.5"></circle>
            <circle id="Oval" fill="#3F3D56" cx="99.5" cy="3.5" r="3.5"></circle>
            <path d="M280.356779,2 L271.643221,2 C271.287621,1.99904855 271,1.77546984 271,1.5 C271,1.22453016 271.287621,1.00095145 271.643221,1 L280.356779,1 C280.712379,1.00095145 281,1.22453016 281,1.5 C281,1.77546984 280.712379,1.99904855 280.356779,2 L280.356779,2 Z" id="Path" fill="#3F3D56"></path>
            <path d="M280.356779,5 L271.643221,5 C271.287621,4.99904855 271,4.77546984 271,4.5 C271,4.22453016 271.287621,4.00095145 271.643221,4 L280.356779,4 C280.712379,4.00095145 281,4.22453016 281,4.5 C281,4.77546984 280.712379,4.99904855 280.356779,5 L280.356779,5 Z" id="Path" fill="#3F3D56"></path>
            <path d="M280.356779,7 L271.643221,7 C271.287621,6.99904855 271,6.77546984 271,6.5 C271,6.22453016 271.287621,6.00095145 271.643221,6 L280.356779,6 C280.712379,6.00095145 281,6.22453016 281,6.5 C281,6.77546984 280.712379,6.99904855 280.356779,7 L280.356779,7 Z" id="Path" fill="#3F3D56"></path>
            <path d="M144.62141,258 L0.378590078,258 C0.169500552,258 0,257.776142 0,257.5 C0,257.223858 0.169500552,257 0.378590078,257 L144.62141,257 C144.830499,257 145,257.223858 145,257.5 C145,257.776142 144.830499,258 144.62141,258 Z" id="Path" fill="#CACACA"></path>
            <path d="M222.032484,60.9995096 L132.079915,60.9995096 C131.042289,61.0222555 130.152505,60.2513154 130.010456,59.2064567 C129.953126,58.6432837 130.133362,58.0818046 130.506443,57.6613349 C130.879523,57.2408651 131.410484,57.0008105 131.967582,57.000734 L221.892796,57.000734 C222.947626,56.9725726 223.853343,57.7578782 223.992116,58.8209571 C224.041495,59.380134 223.857318,59.9346521 223.484587,60.3490225 C223.111856,60.763393 222.584904,60.9994475 222.032484,60.9995096 Z" id="Path" fill="#5C5C5C"></path>
        </g>
    </g>
</svg>